<mxfile host="app.diagrams.net" modified="2023-10-15T12:00:00.000Z" agent="Mozilla/5.0" version="22.6.1" etag="your-etag" type="device">
  <diagram id="seckill-flowchart" name="秒杀活动流程图">
    <mxGraphModel dx="1424" dy="800" grid="1" gridSize="10" guides="1" tooltips="1" connect="1" arrows="1" fold="1" page="1" pageScale="1" pageWidth="1169" pageHeight="827" math="0" shadow="0">
      <root>
        <mxCell id="0" />
        <mxCell id="1" parent="0" />
        
        <!-- 泳道 -->
        <mxCell id="2" value="用户" style=" swimlane;html=1;startSize=30;horizontal=1;childLayout=stackLayout;swimlaneFillColor=#E5F6FF;swimlaneLineColor=#73A6FF;fillColor=#ffffff;strokeColor=#6482B9;dashed=0;whiteSpace=wrap;rounded=0;" vertex="1" parent="1">
          <mxGeometry x="0" y="0" width="1200" height="700" as="geometry">
            <mxRectangle x="0" y="0" width="1200" height="30" as="alternateBounds" />
          </mxGeometry>
        </mxCell>
        
        <mxCell id="3" value="前端页面" style=" swimlane;html=1;startSize=30;horizontal=1;childLayout=stackLayout;swimlaneFillColor=#E5F6FF;swimlaneLineColor=#73A6FF;fillColor=#ffffff;strokeColor=#6482B9;dashed=0;whiteSpace=wrap;rounded=0;" vertex="1" parent="1">
          <mxGeometry x="0" y="70" width="1200" height="700" as="geometry">
            <mxRectangle x="0" y="0" width="1200" height="30" as="alternateBounds" />
          </mxGeometry>
        </mxCell>
        
        <mxCell id="4" value="API网关" style=" swimlane;html=1;startSize=30;horizontal=1;childLayout=stackLayout;swimlaneFillColor=#E5F6FF;swimlaneLineColor=#73A6FF;fillColor=#ffffff;strokeColor=#6482B9;dashed=0;whiteSpace=wrap;rounded=0;" vertex="1" parent="1">
          <mxGeometry x="0" y="140" width="1200" height="700" as="geometry">
            <mxRectangle x="0" y="0" width="1200" height="30" as="alternateBounds" />
          </mxGeometry>
        </mxCell>
        
        <mxCell id="5" value="认证服务" style=" swimlane;html=1;startSize=30;horizontal=1;childLayout=stackLayout;swimlaneFillColor=#E5F6FF;swimlaneLineColor=#73A6FF;fillColor=#ffffff;strokeColor=#6482B9;dashed=0;whiteSpace=wrap;rounded=0;" vertex="1" parent="1">
          <mxGeometry x="0" y="210" width="1200" height="700" as="geometry">
            <mxRectangle x="0" y="0" width="1200" height="30" as="alternateBounds" />
          </mxGeometry>
        </mxCell>
        
        <mxCell id="6" value="库存服务" style=" swimlane;html=1;startSize=30;horizontal=1;childLayout=stackLayout;swimlaneFillColor=#E5F6FF;swimlaneLineColor=#73A6FF;fillColor=#ffffff;strokeColor=#6482B9;dashed=0;whiteSpace=wrap;rounded=0;" vertex="1" parent="1">
          <mxGeometry x="0" y="280" width="1200" height="700" as="geometry">
            <mxRectangle x="0" y="0" width="1200" height="30" as="alternateBounds" />
          </mxGeometry>
        </mxCell>
        
        <mxCell id="7" value="缓存(Redis)" style=" swimlane;html=1;startSize=30;horizontal=1;childLayout=stackLayout;swimlaneFillColor=#E5F6FF;swimlaneLineColor=#73A6FF;fillColor=#ffffff;strokeColor=#6482B9;dashed=0;whiteSpace=wrap;rounded=0;" vertex="1" parent="1">
          <mxGeometry x="0" y="350" width="1200" height="700" as="geometry">
            <mxRectangle x="0" y="0" width="1200" height="30" as="alternateBounds" />
          </mxGeometry>
        </mxCell>
        
        <mxCell id="8" value="订单服务" style=" swimlane;html=1;startSize=30;horizontal=1;childLayout=stackLayout;swimlaneFillColor=#E5F6FF;swimlaneLineColor=#73A6FF;fillColor=#ffffff;strokeColor=#6482B9;dashed=0;whiteSpace=wrap;rounded=0;" vertex="1" parent="1">
          <mxGeometry x="0" y="420" width="1200" height="700" as="geometry">
            <mxRectangle x="0" y="0" width="1200" height="30" as="alternateBounds" />
          </mxGeometry>
        </mxCell>
        
        <mxCell id="9" value="支付服务" style=" swimlane;html=1;startSize=30;horizontal=1;childLayout=stackLayout;swimlaneFillColor=#E5F6FF;swimlaneLineColor=#73A6FF;fillColor=#ffffff;strokeColor=#6482B9;dashed=0;whiteSpace=wrap;rounded=0;" vertex="1" parent="1">
          <mxGeometry x="0" y="490" width="1200" height="700" as="geometry">
            <mxRectangle x="0" y="0" width="1200" height="30" as="alternateBounds" />
          </mxGeometry>
        </mxCell>
        
        <mxCell id="10" value="数据库" style=" swimlane;html=1;startSize=30;horizontal=1;childLayout=stackLayout;swimlaneFillColor=#E5F6FF;swimlaneLineColor=#73A6FF;fillColor=#ffffff;strokeColor=#6482B9;dashed=0;whiteSpace=wrap;rounded=0;" vertex="1" parent="1">
          <mxGeometry x="0" y="560" width="1200" height="700" as="geometry">
            <mxRectangle x="0" y="0" width="1200" height="30" as="alternateBounds" />
          </mxGeometry>
        </mxCell>
        
        <!-- 流程节点 -->
        <mxCell id="11" value="点击"立即秒杀"按钮" style="rounded=0;whiteSpace=wrap;html=1;fillColor=#ffffff;strokeColor=#000000;" vertex="1" parent="2">
          <mxGeometry x="100" y="35" width="120" height="30" as="geometry" />
        </mxCell>
        
        <mxCell id="12" value="请求秒杀接口 /seckill/item/{id}" style="rounded=0;whiteSpace=wrap;html=1;fillColor=#ffffff;strokeColor=#000000;" vertex="1" parent="3">
          <mxGeometry x="100" y="105" width="180" height="30" as="geometry" />
        </mxCell>
        
        <mxCell id="13" value="验证用户令牌" style="rounded=0;whiteSpace=wrap;html=1;fillColor=#ffffff;strokeColor=#000000;" vertex="1" parent="4">
          <mxGeometry x="100" y="175" width="120" height="30" as="geometry" />
        </mxCell>
        
        <mxCell id="14" value="返回验证结果" style="rounded=0;whiteSpace=wrap;html=1;fillColor=#ffffff;strokeColor=#000000;" vertex="1" parent="5">
          <mxGeometry x="100" y="245" width="120" height="30" as="geometry" />
        </mxCell>
        
        <mxCell id="15" value="检查库存(预扣减)" style="rounded=0;whiteSpace=wrap;html=1;fillColor=#ffffff;strokeColor=#000000;" vertex="1" parent="4">
          <mxGeometry x="250" y="175" width="140" height="30" as="geometry" />
        </mxCell>
        
        <mxCell id="16" value="查询秒杀库存" style="rounded=0;whiteSpace=wrap;html=1;fillColor=#ffffff;strokeColor=#000000;" vertex="1" parent="6">
          <mxGeometry x="100" y="315" width="120" height="30" as="geometry" />
        </mxCell>
        
        <mxCell id="17" value="返回可用库存" style="rounded=0;whiteSpace=wrap;html=1;fillColor=#ffffff;strokeColor=#000000;" vertex="1" parent="7">
          <mxGeometry x="100" y="385" width="120" height="30" as="geometry" />
        </mxCell>
        
        <!-- 决策节点 -->
        <mxCell id="18" value="库存不足" style="shape=rhombus;whiteSpace=wrap;html=1;fillColor=#ffffff;strokeColor=#000000;" vertex="1" parent="6">
          <mxGeometry x="250" y="315" width="80" height="80" as="geometry" />
        </mxCell>
        
        <mxCell id="19" value="库存充足" style="shape=rhombus;whiteSpace=wrap;html=1;fillColor=#ffffff;strokeColor=#000000;" vertex="1" parent="6">
          <mxGeometry x="400" y="315" width="80" height="80" as="geometry" />
        </mxCell>
        
        <!-- 库存不足分支 -->
        <mxCell id="20" value="返回库存不足响应" style="rounded=0;whiteSpace=wrap;html=1;fillColor=#ffffff;strokeColor=#000000;" vertex="1" parent="6">
          <mxGeometry x="250" y="425" width="140" height="30" as="geometry" />
        </mxCell>
        
        <mxCell id="21" value="返回失败结果(库存不足)" style="rounded=0;whiteSpace=wrap;html=1;fillColor=#ffffff;strokeColor=#000000;" vertex="1" parent="4">
          <mxGeometry x="250" y="175" width="180" height="30" as="geometry" />
        </mxCell>
        
        <mxCell id="22" value="显示秒杀失败" style="rounded=0;whiteSpace=wrap;html=1;fillColor=#ffffff;strokeColor=#000000;" vertex="1" parent="3">
          <mxGeometry x="250" y="105" width="120" height="30" as="geometry" />
        </mxCell>
        
        <!-- 库存充足分支 -->
        <mxCell id="23" value="预扣减库存" style="rounded=0;whiteSpace=wrap;html=1;fillColor=#ffffff;strokeColor=#000000;" vertex="1" parent="6">
          <mxGeometry x="400" y="425" width="120" height="30" as="geometry" />
        </mxCell>
        
        <mxCell id="24" value="返回扣减结果" style="rounded=0;whiteSpace=wrap;html=1;fillColor=#ffffff;strokeColor=#000000;" vertex="1" parent="7">
          <mxGeometry x="400" y="385" width="120" height="30" as="geometry" />
        </mxCell>
        
        <mxCell id="25" value="返回预扣成功" style="rounded=0;whiteSpace=wrap;html=1;fillColor=#ffffff;strokeColor=#000000;" vertex="1" parent="6">
          <mxGeometry x="550" y="315" width="120" height="30" as="geometry" />
        </mxCell>
        
        <mxCell id="26" value="创建秒杀订单" style="rounded=0;whiteSpace=wrap;html=1;fillColor=#ffffff;strokeColor=#000000;" vertex="1" parent="4">
          <mxGeometry x="550" y="175" width="140" height="30" as="geometry" />
        </mxCell>
        
        <mxCell id="27" value="插入订单记录" style="rounded=0;whiteSpace=wrap;html=1;fillColor=#ffffff;strokeColor=#000000;" vertex="1" parent="8">
          <mxGeometry x="100" y="455" width="120" height="30" as="geometry" />
        </mxCell>
        
        <mxCell id="28" value="返回订单ID" style="rounded=0;whiteSpace=wrap;html=1;fillColor=#ffffff;strokeColor=#000000;" vertex="1" parent="10">
          <mxGeometry x="100" y="595" width="120" height="30" as="geometry" />
        </mxCell>
        
        <mxCell id="29" value="返回订单创建成功" style="rounded=0;whiteSpace=wrap;html=1;fillColor=#ffffff;strokeColor=#000000;" vertex="1" parent="8">
          <mxGeometry x="250" y="455" width="160" height="30" as="geometry" />
        </mxCell>
        
        <mxCell id="30" value="返回秒杀成功，跳转支付页" style="rounded=0;whiteSpace=wrap;html=1;fillColor=#ffffff;strokeColor=#000000;" vertex="1" parent="4">
          <mxGeometry x="720" y="175" width="180" height="30" as="geometry" />
        </mxCell>
        
        <mxCell id="31" value="显示支付页面" style="rounded=0;whiteSpace=wrap;html=1;fillColor=#ffffff;strokeColor=#000000;" vertex="1" parent="3">
          <mxGeometry x="720" y="105" width="120" height="30" as="geometry" />
        </mxCell>
        
        <mxCell id="32" value="确认支付" style="rounded=0;whiteSpace=wrap;html=1;fillColor=#ffffff;strokeColor=#000000;" vertex="1" parent="2">
          <mxGeometry x="720" y="35" width="100" height="30" as="geometry" />
        </mxCell>
        
        <mxCell id="33" value="请求支付接口 /order/pay/{orderId}" style="rounded=0;whiteSpace=wrap;html=1;fillColor=#ffffff;strokeColor=#000000;" vertex="1" parent="3">
          <mxGeometry x="850" y="105" width="180" height="30" as="geometry" />
        </mxCell>
        
        <mxCell id="34" value="发起支付流程" style="rounded=0;whiteSpace=wrap;html=1;fillColor=#ffffff;strokeColor=#000000;" vertex="1" parent="4">
          <mxGeometry x="850" y="175" width="140" height="30" as="geometry" />
        </mxCell>
        
        <mxCell id="35" value="调用第三方支付(如支付宝)" style="rounded=0;whiteSpace=wrap;html=1;fillColor=#ffffff;strokeColor=#000000;" vertex="1" parent="9">
          <mxGeometry x="100" y="525" width="180" height="30" as="geometry" />
        </mxCell>
        
        <mxCell id="36" value="返回支付结果" style="rounded=0;whiteSpace=wrap;html=1;fillColor=#ffffff;strokeColor=#000000;" vertex="1" parent="9">
          <mxGeometry x="320" y="525" width="120" height="30" as="geometry" />
        </mxCell>
        
        <mxCell id="37" value="更新订单状态" style="rounded=0;whiteSpace=wrap;html=1;fillColor=#ffffff;strokeColor=#000000;" vertex="1" parent="4">
          <mxGeometry x="1020" y="175" width="140" height="30" as="geometry" />
        </mxCell>
        
        <mxCell id="38" value="更新订单为已支付" style="rounded=0;whiteSpace=wrap;html=1;fillColor=#ffffff;strokeColor=#000000;" vertex="1" parent="8">
          <mxGeometry x="400" y="455" width="140" height="30" as="geometry" />
        </mxCell>
        
        <mxCell id="39" value="返回更新成功" style="rounded=0;whiteSpace=wrap;html=1;fillColor=#ffffff;strokeColor=#000000;" vertex="1" parent="10">
          <mxGeometry x="400" y="595" width="120" height="30" as="geometry" />
        </mxCell>
        
        <mxCell id="40" value="确认库存扣减" style="rounded=0;whiteSpace=wrap;html=1;fillColor=#ffffff;strokeColor=#000000;" vertex="1" parent="8">
          <mxGeometry x="570" y="455" width="140" height="30" as="geometry" />
        </mxCell>
        
        <mxCell id="41" value="扣减实际库存" style="rounded=0;whiteSpace=wrap;html=1;fillColor=#ffffff;strokeColor=#000000;" vertex="1" parent="6">
          <mxGeometry x="720" y="315" width="120" height="30" as="geometry" />
        </mxCell>
        
        <mxCell id="42" value="返回扣减成功" style="rounded=0;whiteSpace=wrap;html=1;fillColor=#ffffff;strokeColor=#000000;" vertex="1" parent="10">
          <mxGeometry x="720" y="595" width="120" height="30" as="geometry" />
        </mxCell>
        
        <mxCell id="43" value="返回库存确认成功" style="rounded=0;whiteSpace=wrap;html=1;fillColor=#ffffff;strokeColor=#000000;" vertex="1" parent="6">
          <mxGeometry x="870" y="315" width="160" height="30" as="geometry" />
        </mxCell>
        
        <mxCell id="44" value="返回订单更新成功" style="rounded=0;whiteSpace=wrap;html=1;fillColor=#ffffff;strokeColor=#000000;" vertex="1" parent="8">
          <mxGeometry x="750" y="455" width="180" height="30" as="geometry" />
        </mxCell>
        
        <mxCell id="45" value="返回支付成功结果" style="rounded=0;whiteSpace=wrap;html=1;fillColor=#ffffff;strokeColor=#000000;" vertex="1" parent="4">
          <mxGeometry x="1190" y="175" width="160" height="30" as="geometry" />
        </mxCell>
        
        <mxCell id="46" value="显示支付成功页面" style="rounded=0;whiteSpace=wrap;html=1;fillColor=#ffffff;strokeColor=#000000;" vertex="1" parent="3">
          <mxGeometry x="1190" y="105" width="160" height="30" as="geometry" />
        </mxCell>
        
        <!-- 连接线 -->
        <mxCell id="47" value="" style="endArrow=classic;html=1;rounded=0;dashed=0;exitX=0.5;exitY=1;exitDx=0;exitDy=0;entryX=0.5;entryY=0;entryDx=0;entryDy=0;" edge="1" parent="1" source="11" target="12">
          <mxGeometry width="50" height="50" relative="1" as="geometry">
            <mxPoint x="100" y="35" as="sourcePoint" />
            <mxPoint x="100" y="105" as="targetPoint" />
          </mxGeometry>
        </mxCell>
        
        <mxCell id="48" value="" style="endArrow=classic;html=1;rounded=0;dashed=0;exitX=0.5;exitY=1;exitDx=0;exitDy=0;entryX=0.5;entryY=0;entryDx=0;entryDy=0;" edge="1" parent="1" source="12" target="13">
          <mxGeometry width="50" height="50" relative="1" as="geometry">
            <mxPoint x="100" y="105" as="sourcePoint" />
            <mxPoint x="100" y="175" as="targetPoint" />
          </mxGeometry>
        </mxCell>
        
        <mxCell id="49" value="" style="endArrow=classic;html=1;rounded=0;dashed=0;exitX=0.5;exitY=1;exitDx=0;exitDy=0;entryX=0.5;entryY=0;entryDx=0;entryDy=0;" edge="1" parent="1" source="13" target="14">
          <mxGeometry width="50" height="50" relative="1" as="geometry">
            <mxPoint x="100" y="175" as="sourcePoint" />
            <mxPoint x="100" y="245" as="targetPoint" />
          </mxGeometry>
        </mxCell>
        
        <mxCell id="50" value="" style="endArrow=classic;html=1;rounded=0;dashed=0;exitX=0.5;exitY=0;exitDx=0;exitDy=0;entryX=0.5;entryY=1;entryDx=0;entryDy=0;" edge="1" parent="1" source="14" target="15">
          <mxGeometry width="50" height="50" relative="1" as="geometry">
            <mxPoint x="100" y="245" as="sourcePoint" />
            <mxPoint x="250" y="175" as="targetPoint" />
          </mxGeometry>
        </mxCell>
        
        <mxCell id="51" value="" style="endArrow=classic;html=1;rounded=0;dashed=0;exitX=0.5;exitY=1;exitDx=0;exitDy=0;entryX=0.5;entryY=0;entryDx=0;entryDy=0;" edge="1" parent="1" source="15" target="16">
          <mxGeometry width="50" height="50" relative="1" as="geometry">
            <mxPoint x="250" y="175" as="sourcePoint" />
            <mxPoint x="100" y="315" as="targetPoint" />
          </mxGeometry>
        </mxCell>
        
        <mxCell id="52" value="" style="endArrow=classic;html=1;rounded=0;dashed=0;exitX=0.5;exitY=1;exitDx=0;exitDy=0;entryX=0.5;entryY=0;entryDx=0;entryDy=0;" edge="1" parent="1" source="16" target="17">
          <mxGeometry width="50" height="50" relative="1" as="geometry">
            <mxPoint x="100" y="315" as="sourcePoint" />
            <mxPoint x="100" y="385" as="targetPoint" />
          </mxGeometry>
        </mxCell>
        
        <mxCell id="53" value="" style="endArrow=classic;html=1;rounded=0;dashed=0;exitX=0.5;exitY=0;exitDx=0;exitDy=0;entryX=0.5;entryY=1;entryDx=0;entryDy=0;" edge="1" parent="1" source="17" target="18">
          <mxGeometry width="50" height="50" relative="1" as="geometry">
            <mxPoint x="100" y="385" as="sourcePoint" />
            <mxPoint x="250" y="315" as="targetPoint" />
          </mxGeometry>
        </mxCell>
        
        <!-- 库存不足分支连线 -->
        <mxCell id="54" value="" style="endArrow=classic;html=1;rounded=0;dashed=0;exitX=0.5;exitY=1;exitDx=0;exitDy=0;entryX=0.5;entryY=0;entryDx=0;entryDy=0;" edge="1" parent="1" source="18" target="20">
          <mxGeometry width="50" height="50" relative="1" as="geometry">
            <mxPoint x="250" y="315" as="sourcePoint" />
            <mxPoint x="250" y="425" as="targetPoint" />
          </mxGeometry>
        </mxCell>
        
        <mxCell id="55" value="" style="endArrow=classic;html=1;rounded=0;dashed=0;exitX=0.5;exitY=0;exitDx=0;exitDy=0;entryX=0.5;entryY=1;entryDx=0;entryDy=0;" edge="1" parent="1" source="20" target="21">
          <mxGeometry width="50" height="50" relative="1" as="geometry">
            <mxPoint x="250" y="425" as="sourcePoint" />
            <mxPoint x="250" y="175" as="targetPoint" />
          </mxGeometry>
        </mxCell>
        
        <mxCell id="56" value="" style="endArrow=classic;html=1;rounded=0;dashed=0;exitX=0.5;exitY=0;exitDx=0;exitDy=0;entryX=0.5;entryY=1;entryDx=0;entryDy=0;" edge="1" parent="1" source="21" target="22">
          <mxGeometry width="50" height="50" relative="1" as="geometry">
            <mxPoint x="250" y="175" as="sourcePoint" />
            <mxPoint x="250" y="105" as="targetPoint" />
          </mxGeometry>
        </mxCell>
        
        <!-- 库存充足分支连线 -->
        <mxCell id="57" value="" style="endArrow=classic;html=1;rounded=0;dashed=0;exitX=1;exitY=0.5;exitDx=0;exitDy=0;entryX=0;entryY=0.5;entryDx=0;entryDy=0;" edge="1" parent="1" source="18" target="19">
          <mxGeometry width="50" height="50" relative="1" as="geometry">
            <mxPoint x="250" y="315" as="sourcePoint" />
            <mxPoint x="400" y="315" as="targetPoint" />
          </mxGeometry>
        </mxCell>
        
        <mxCell id="58" value="" style="endArrow=classic;html=1;rounded=0;dashed=0;exitX=0.5;exitY=1;exitDx=0;exitDy=0;entryX=0.5;entryY=0;entryDx=0;entryDy=0;" edge="1" parent="1" source="19" target="23">
          <mxGeometry width="50" height="50" relative="1" as="geometry">
            <mxPoint x="400" y="315" as="sourcePoint" />
            <mxPoint x="400" y="425" as="targetPoint" />
          </mxGeometry>
        </mxCell>
        
        <mxCell id="59" value="" style="endArrow=classic;html=1;rounded=0;dashed=0;exitX=0.5;exitY=1;exitDx=0;exitDy=0;entryX=0.5;entryY=0;entryDx=0;entryDy=0;" edge="1" parent="1" source="23" target="24">
          <mxGeometry width="50" height="50" relative="1" as="geometry">
            <mxPoint x="400" y="425" as="sourcePoint" />
            <mxPoint x="400" y="385" as="targetPoint" />
          </mxGeometry>
        </mxCell>
        
        <mxCell id="60" value="" style="endArrow=classic;html=1;rounded=0;dashed=0;exitX=0.5;exitY=0;exitDx=0;exitDy=0;entryX=0.5;entryY=1;entryDx=0;entryDy=0;" edge="1" parent="1" source="24" target="25">
          <mxGeometry width="50" height="50" relative="1" as="geometry">
            <mxPoint x="400" y="385" as="sourcePoint" />
            <mxPoint x="550" y="315" as="targetPoint" />
          </mxGeometry>
        </mxCell>
        
        <mxCell id="61" value="" style="endArrow=classic;html=1;rounded=0;dashed=0;exitX=0.5;exitY=0;exitDx=0;exitDy=0;entryX=0.5;entryY=1;entryDx=0;entryDy=0;" edge="1" parent="1" source="25" target="26">
          <mxGeometry width="50" height="50" relative="1" as="geometry">
            <mxPoint x="550" y="315" as="sourcePoint" />
            <mxPoint x="550" y="175" as="targetPoint" />
          </mxGeometry>
        </mxCell>
        
        <mxCell id="62" value="" style="endArrow=classic;html=1;rounded=0;dashed=0;exitX=0.5;exitY=1;exitDx=0;exitDy=0;entryX=0.5;entryY=0;entryDx=0;entryDy=0;" edge="1" parent="1" source="26" target="27">
          <mxGeometry width="50" height="50" relative="1" as="geometry">
            <mxPoint x="550" y="175" as="sourcePoint" />
            <mxPoint x="100" y="455" as="targetPoint" />
          </mxGeometry>
        </mxCell>
        
        <mxCell id="63" value="" style="endArrow=classic;html=1;rounded=0;dashed=0;exitX=0.5;exitY=1;exitDx=0;exitDy=0;entryX=0.5;entryY=0;entryDx=0;entryDy=0;" edge="1" parent="1" source="27" target="28">
          <mxGeometry width="50" height="50" relative="1" as="geometry">
            <mxPoint x="100" y="455" as="sourcePoint" />
            <mxPoint x="100" y="595" as="targetPoint" />
          </mxGeometry>
        </mxCell>
        
        <mxCell id="64" value="" style="endArrow=classic;html=1;rounded=0;dashed=0;exitX=0.5;exitY=0;exitDx=0;exitDy=0;entryX=0.5;entryY=1;entryDx=0;entryDy=0;" edge="1" parent="1" source="28" target="29">
          <mxGeometry width="50" height="50" relative="1" as="geometry">
            <mxPoint x="100" y="595" as="sourcePoint" />
            <mxPoint x="250" y="455" as="targetPoint" />
          </mxGeometry>
        </mxCell>
        
        <mxCell id="65" value="" style="endArrow=classic;html=1;rounded=0;dashed=0;exitX=0.5;exitY=0;exitDx=0;exitDy=0;entryX=0.5;entryY=1;entryDx=0;entryDy=0;" edge="1" parent="1" source="29" target="30">
          <mxGeometry width="50" height="50" relative="1" as="geometry">
            <mxPoint x="250" y="455" as="sourcePoint" />
            <mxPoint x="720" y="175" as="targetPoint" />
          </mxGeometry>
        </mxCell>
        
        <mxCell id="66" value="" style="endArrow=classic;html=1;rounded=0;dashed=0;exitX=0.5;exitY=0;exitDx=0;exitDy=0;entryX=0.5;entryY=1;entryDx=0;entryDy=0;" edge="1" parent="1" source="30" target="31">
          <mxGeometry width="50" height="50" relative="1" as="geometry">
            <mxPoint x="720" y="175" as="sourcePoint" />
            <mxPoint x="720" y="105" as="targetPoint" />
          </mxGeometry>
        </mxCell>
        
        <mxCell id="67" value="" style="endArrow=classic;html=1;rounded=0;dashed=0;exitX=0.5;exitY=0;exitDx=0;exitDy=0;entryX=0.5;entryY=1;entryDx=0;entryDy=0;" edge="1" parent="1" source="31" target="32">
          <mxGeometry width="50" height="50" relative="1" as="geometry">
            <mxPoint x="720" y="105" as="sourcePoint" />
            <mxPoint x="720" y="35" as="targetPoint" />
          </mxGeometry>
        </mxCell>
        
        <mxCell id="68" value="" style="endArrow=classic;html=1;rounded=0;dashed=0;exitX=0.5;exitY=1;exitDx=0;exitDy=0;entryX=0.5;entryY=0;entryDx=0;entryDy=0;" edge="1" parent="1" source="32" target="33">
          <mxGeometry width="50" height="50" relative="1" as="geometry">
            <mxPoint x="720" y="35" as="sourcePoint" />
            <mxPoint x="850" y="105" as="targetPoint" />
          </mxGeometry>
        </mxCell>
        
        <mxCell id="69" value="" style="endArrow=classic;html=1;rounded=0;dashed=0;exitX=0.5;exitY=1;exitDx=0;exitDy=0;entryX=0.5;entryY=0;entryDx=0;entryDy=0;" edge="1" parent="1" source="33" target="34">
          <mxGeometry width="50" height="50" relative="1" as="geometry">
            <mxPoint x="850" y="105" as="sourcePoint" />
            <mxPoint x="850" y="175" as="targetPoint" />
          </mxGeometry>
        </mxCell>
        
        <mxCell id="70" value="" style="endArrow=classic;html=1;rounded=0;dashed=0;exitX=0.5;exitY=1;exitDx=0;exitDy=0;entryX=0.5;entryY=0;entryDx=0;entryDy=0;" edge="1" parent="1" source="34" target="35">
          <mxGeometry width="50" height="50" relative="1" as="geometry">
            <mxPoint x="850" y="175" as="sourcePoint" />
            <mxPoint x="100" y="525" as="targetPoint" />
          </mxGeometry>
        </mxCell>
        
        <mxCell id="71" value="" style="endArrow=classic;html=1;rounded=0;dashed=0;exitX=0.5;exitY=0;exitDx=0;exitDy=0;entryX=0.5;entryY=1;entryDx=0;entryDy=0;" edge="1" parent="1" source="35" target="36">
          <mxGeometry width="50" height="50" relative="1" as="geometry">
            <mxPoint x="100" y="525" as="sourcePoint" />
            <mxPoint x="320" y="525" as="targetPoint" />
          </mxGeometry>
        </mxCell>
        
        <mxCell id="72" value="" style="endArrow=classic;html=1;rounded=0;dashed=0;exitX=0.5;exitY=0;exitDx=0;exitDy=0;entryX=0.5;entryY=1;entryDx=0;entryDy=0;" edge="1" parent="1" source="36" target="37">
          <mxGeometry width="50" height="50" relative="1" as="geometry">
            <mxPoint x="320" y="525" as="sourcePoint" />
            <mxPoint x="1020" y="175" as="targetPoint" />
          </mxGeometry>
        </mxCell>
        
        <mxCell id="73" value="" style="endArrow=classic;html=1;rounded=0;dashed=0;exitX=0.5;exitY=1;exitDx=0;exitDy=0;entryX=0.5;entryY=0;entryDx=0;entryDy=0;" edge="1" parent="1" source="37" target="38">
          <mxGeometry width="50" height="50" relative="1" as="geometry">
            <mxPoint x="1020" y="175" as="sourcePoint" />
            <mxPoint x="400" y="455" as="targetPoint" />
          </mxGeometry>
        </mxCell>
        
        <mxCell id="74" value="" style="endArrow=classic;html=1;rounded=0;dashed=0;exitX=0.5;exitY=1;exitDx=0;exitDy=0;entryX=0.5;entryY=0;entryDx=0;entryDy=0;" edge="1" parent="1" source="38" target="39">
          <mxGeometry width="50" height="50" relative="1" as="geometry">
            <mxPoint x="400" y="455" as="sourcePoint" />
            <mxPoint x="400" y="595" as="targetPoint" />
          </mxGeometry>
        </mxCell>
        
        <mxCell id="75" value="" style="endArrow=classic;html=1;rounded=0;dashed=0;exitX=0.5;exitY=0;exitDx=0;exitDy=0;entryX=0.5;entryY=1;entryDx=0;entryDy=0;" edge="1" parent="1" source="39" target="40">
          <mxGeometry width="50" height="50" relative="1" as="geometry">
            <mxPoint x="400" y="595" as="sourcePoint" />
            <mxPoint x="570" y="455" as="targetPoint" />
          </mxGeometry>
        </mxCell>
        
        <mxCell id="76" value="" style="endArrow=classic;html=1;rounded=0;dashed=0;exitX=0.5;exitY=1;exitDx=0;exitDy=0;entryX=0.5;entryY=0;entryDx=0;entryDy=0;" edge="1" parent="1" source="40" target="41">
          <mxGeometry width="50" height="50" relative="1" as="geometry">
            <mxPoint x="570" y="455" as="sourcePoint" />
            <mxPoint x="720" y="315" as="targetPoint" />
          </mxGeometry>
        </mxCell>
        
        <mxCell id="77" value="" style="endArrow=classic;html=1;rounded=0;dashed=0;exitX=0.5;exitY=1;exitDx=0;exitDy=0;entryX=0.5;entryY=0;entryDx=0;entryDy=0;" edge="1" parent="1" source="41" target="42">
          <mxGeometry width="50" height="50" relative="1" as="geometry">
            <mxPoint x="720" y="315" as="sourcePoint" />
            <mxPoint x="720" y="595" as="targetPoint" />
          </mxGeometry>
        </mxCell>
        
        <mxCell id="78" value="" style="endArrow=classic;html=1;rounded=0;dashed=0;exitX=0.5;exitY=0;exitDx=0;exitDy=0;entryX=0.5;entryY=1;entryDx=0;entryDy=0;" edge="1" parent="1" source="42" target="43">
          <mxGeometry width="50" height="50" relative="1" as="geometry">
            <mxPoint x="720" y="595" as="sourcePoint" />
            <mxPoint x="870" y="315" as="targetPoint" />
          </mxGeometry>
        </mxCell>
        
        <mxCell id="79" value="" style="endArrow=classic;html=1;rounded=0;dashed=0;exitX=0.5;exitY=0;exitDx=0;exitDy=0;entryX=0.5;entryY=1;entryDx=0;entryDy=0;" edge="1" parent="1" source="43" target="44">
          <mxGeometry width="50" height="50" relative="1" as="geometry">
            <mxPoint x="870" y="315" as="sourcePoint" />
            <mxPoint x="750" y="455" as="targetPoint" />
          </mxGeometry>
        </mxCell>
        
        <mxCell id="80" value="" style="endArrow=classic;html=1;rounded=0;dashed=0;exitX=0.5;exitY=0;exitDx=0;exitDy=0;entryX=0.5;entryY=1;entryDx=0;entryDy=0;" edge="1" parent="1" source="44" target="45">
          <mxGeometry width="50" height="50" relative="1" as="geometry">
            <mxPoint x="750" y="455" as="sourcePoint" />
            <mxPoint x="1190" y="175" as="targetPoint" />
          </mxGeometry>
        </mxCell>
        
        <mxCell id="81" value="" style="endArrow=classic;html=1;rounded=0;dashed=0;exitX=0.5;exitY=0;exitDx=0;exitDy=0;entryX=0.5;entryY=1;entryDx=0;entryDy=0;" edge="1" parent="1" source="45" target="46">
          <mxGeometry width="50" height="50" relative="1" as="geometry">
            <mxPoint x="1190" y="175" as="sourcePoint" />
            <mxPoint x="1190" y="105" as="targetPoint" />
          </mxGeometry>
        </mxCell>
        
        <!-- 备注 -->
        <mxCell id="82" value="库存检查和预扣减在Redis中进行，保证高并发性能" style="rounded=0;whiteSpace=wrap;html=1;fillColor=#ffffff;strokeColor=#000000;dashed=1;" vertex="1" parent="1">
          <mxGeometry x="100" y="650" width="350" height="40" as="geometry" />
        </mxCell>
        
        <mxCell id="83" value="订单创建和库存扣减最终同步到数据库" style="rounded=0;whiteSpace=wrap;html=1;fillColor=#ffffff;strokeColor=#000000;dashed=1;" vertex="1" parent="1">
          <mxGeometry x="500" y="650" width="350" height="40" as="geometry" />
        </mxCell>
      </root>
    </mxGraphModel>
  </diagram>
</mxfile>